<svg id="visual" viewBox="0 0 900 600" width="900" height="600" xmlns="http://www.w3.org/2000/svg" xmlns:xlink="http://www.w3.org/1999/xlink" version="1.1"><g transform="translate(447.4675722486819 289.0071919403349)"><path d="M104.5 -181.9C133.4 -164.4 153.3 -132.2 184.4 -99.4C215.5 -66.7 257.7 -33.3 247.6 -5.8C237.5 21.7 175.1 43.3 141.8 72.3C108.6 101.4 104.5 137.7 85.8 162C67 186.4 33.5 198.7 -5.9 208.9C-45.3 219.2 -90.7 227.4 -106.9 201.6C-123.1 175.8 -110.3 116 -134.6 76.8C-159 37.5 -220.5 18.8 -238.3 -10.3C-256.1 -39.3 -230.3 -78.7 -193.1 -95.7C-155.9 -112.7 -107.5 -107.5 -73.4 -122C-39.3 -136.5 -19.7 -170.7 9.1 -186.5C37.8 -202.2 75.7 -199.4 104.5 -181.9" fill="none" stroke="#f97316" stroke-width="4"></path></g></svg>