<svg xmlns="http://www.w3.org/2000/svg" xmlns:xlink="http://www.w3.org/1999/xlink" id="visual" version="1.1" viewBox="0 425 900 176"><path d="M0 425L25 447.8C50 470.7 100 516.3 150 539.8C200 563.3 250 564.7 300 553C350 541.3 400 516.7 450 501.2C500 485.7 550 479.3 600 477C650 474.7 700 476.3 750 484.8C800 493.3 850 508.7 875 516.3L900 524L900 601L875 601C850 601 800 601 750 601C700 601 650 601 600 601C550 601 500 601 450 601C400 601 350 601 300 601C250 601 200 601 150 601C100 601 50 601 25 601L0 601Z" fill="#3b82f6"/><path d="M0 509L25 517.7C50 526.3 100 543.7 150 543.7C200 543.7 250 526.3 300 519.3C350 512.3 400 515.7 450 528.5C500 541.3 550 563.7 600 573.5C650 583.3 700 580.7 750 575.5C800 570.3 850 562.7 875 558.8L900 555L900 601L875 601C850 601 800 601 750 601C700 601 650 601 600 601C550 601 500 601 450 601C400 601 350 601 300 601C250 601 200 601 150 601C100 601 50 601 25 601L0 601Z" fill="#f97316" stroke="#fff" stroke-width="1"/></svg>