<svg id="visual" viewBox="0 0 900 600" width="900" height="600" xmlns="http://www.w3.org/2000/svg" xmlns:xlink="http://www.w3.org/1999/xlink" version="1.1"><path d="M0 85L16.7 88C33.3 91 66.7 97 100 108C133.3 119 166.7 135 200 129C233.3 123 266.7 95 300 83C333.3 71 366.7 75 400 89C433.3 103 466.7 127 500 127C533.3 127 566.7 103 600 105C633.3 107 666.7 135 700 149C733.3 163 766.7 163 800 146C833.3 129 866.7 95 883.3 78L900 61L900 0L883.3 0C866.7 0 833.3 0 800 0C766.7 0 733.3 0 700 0C666.7 0 633.3 0 600 0C566.7 0 533.3 0 500 0C466.7 0 433.3 0 400 0C366.7 0 333.3 0 300 0C266.7 0 233.3 0 200 0C166.7 0 133.3 0 100 0C66.7 0 33.3 0 16.7 0L0 0Z" fill="#7aaafc"></path><path d="M0 283L16.7 268C33.3 253 66.7 223 100 229C133.3 235 166.7 277 200 278C233.3 279 266.7 239 300 236C333.3 233 366.7 267 400 287C433.3 307 466.7 313 500 311C533.3 309 566.7 299 600 310C633.3 321 666.7 353 700 352C733.3 351 766.7 317 800 300C833.3 283 866.7 283 883.3 283L900 283L900 59L883.3 76C866.7 93 833.3 127 800 144C766.7 161 733.3 161 700 147C666.7 133 633.3 105 600 103C566.7 101 533.3 125 500 125C466.7 125 433.3 101 400 87C366.7 73 333.3 69 300 81C266.7 93 233.3 121 200 127C166.7 133 133.3 117 100 106C66.7 95 33.3 89 16.7 86L0 83Z" fill="#5c96fa"></path><path d="M0 349L16.7 335C33.3 321 66.7 293 100 297C133.3 301 166.7 337 200 342C233.3 347 266.7 321 300 321C333.3 321 366.7 347 400 364C433.3 381 466.7 389 500 387C533.3 385 566.7 373 600 378C633.3 383 666.7 405 700 400C733.3 395 766.7 363 800 349C833.3 335 866.7 339 883.3 341L900 343L900 281L883.3 281C866.7 281 833.3 281 800 298C766.7 315 733.3 349 700 350C666.7 351 633.3 319 600 308C566.7 297 533.3 307 500 309C466.7 311 433.3 305 400 285C366.7 265 333.3 231 300 234C266.7 237 233.3 277 200 276C166.7 275 133.3 233 100 227C66.7 221 33.3 251 16.7 266L0 281Z" fill="#3b82f6"></path><path d="M0 433L16.7 418C33.3 403 66.7 373 100 381C133.3 389 166.7 435 200 447C233.3 459 266.7 437 300 434C333.3 431 366.7 447 400 460C433.3 473 466.7 483 500 480C533.3 477 566.7 461 600 463C633.3 465 666.7 485 700 476C733.3 467 766.7 429 800 415C833.3 401 866.7 411 883.3 416L900 421L900 341L883.3 339C866.7 337 833.3 333 800 347C766.7 361 733.3 393 700 398C666.7 403 633.3 381 600 376C566.7 371 533.3 383 500 385C466.7 387 433.3 379 400 362C366.7 345 333.3 319 300 319C266.7 319 233.3 345 200 340C166.7 335 133.3 299 100 295C66.7 291 33.3 319 16.7 333L0 347Z" fill="#3270d7"></path><path d="M0 601L16.7 601C33.3 601 66.7 601 100 601C133.3 601 166.7 601 200 601C233.3 601 266.7 601 300 601C333.3 601 366.7 601 400 601C433.3 601 466.7 601 500 601C533.3 601 566.7 601 600 601C633.3 601 666.7 601 700 601C733.3 601 766.7 601 800 601C833.3 601 866.7 601 883.3 601L900 601L900 419L883.3 414C866.7 409 833.3 399 800 413C766.7 427 733.3 465 700 474C666.7 483 633.3 463 600 461C566.7 459 533.3 475 500 478C466.7 481 433.3 471 400 458C366.7 445 333.3 429 300 432C266.7 435 233.3 457 200 445C166.7 433 133.3 387 100 379C66.7 371 33.3 401 16.7 416L0 431Z" fill="#295eb8"></path></svg>