<svg xmlns="http://www.w3.org/2000/svg" xmlns:xlink="http://www.w3.org/1999/xlink" id="visual" version="1.1" viewBox="617 0 283 600"><path d="M617 600L645 585.7C673 571.3 729 542.7 722.8 514.2C716.7 485.7 648.3 457.3 627.7 428.8C607 400.3 634 371.7 655.3 343C676.7 314.3 692.3 285.7 693.2 257C694 228.3 680 199.7 658.8 171.2C637.7 142.7 609.3 114.3 625.8 85.8C642.3 57.3 703.7 28.7 734.3 14.3L765 0L900 0L900 14.3C900 28.7 900 57.3 900 85.8C900 114.3 900 142.7 900 171.2C900 199.7 900 228.3 900 257C900 285.7 900 314.3 900 343C900 371.7 900 400.3 900 428.8C900 457.3 900 485.7 900 514.2C900 542.7 900 571.3 900 585.7L900 600Z" fill="#3b82f6" stroke="#ffffff"
    stroke-width="2" stroke-linecap="round"  stroke-linejoin="miter"/></svg>