<svg xmlns="http://www.w3.org/2000/svg" xmlns:xlink="http://www.w3.org/1999/xlink" id="visual" version="1.1" viewBox="-2.5 437.9 905 99.06"><path d="M0 484L11.5 481C23 478 46 472 69 468.8C92 465.7 115 465.3 138.2 477.2C161.3 489 184.7 513 207.8 525C231 537 254 537 277 528.3C300 519.7 323 502.3 346 498C369 493.7 392 502.3 415.2 491.8C438.3 481.3 461.7 451.7 484.8 443.2C508 434.7 531 447.3 554 458C577 468.7 600 477.3 623 473C646 468.7 669 451.3 692.2 450.5C715.3 449.7 738.7 465.3 761.8 472.8C785 480.3 808 479.7 831 476C854 472.3 877 465.7 888.5 462.3L900 459" fill="none" stroke-linecap="round" stroke-linejoin="miter" stroke="#0066FF" stroke-width="2"/></svg>