<svg xmlns="http://www.w3.org/2000/svg" xmlns:xlink="http://www.w3.org/1999/xlink" id="visual" version="1.1" viewBox="-2.5 419.5 905 95.06"><path d="M0 424L11.5 423.5C23 423 46 422 69 439C92 456 115 491 138.2 494.7C161.3 498.3 184.7 470.7 207.8 461.7C231 452.7 254 462.3 277 470C300 477.7 323 483.3 346 492.2C369 501 392 513 415.2 512C438.3 511 461.7 497 484.8 485C508 473 531 463 554 458.8C577 454.7 600 456.3 623 467.5C646 478.7 669 499.3 692.2 501.5C715.3 503.7 738.7 487.3 761.8 475.8C785 464.3 808 457.7 831 449.5C854 441.3 877 431.7 888.5 426.8L900 422" fill="none" stroke-linecap="round" stroke-linejoin="miter" stroke="#f97316" stroke-width="2"/></svg>